<svg xmlns="http://www.w3.org/2000/svg" viewBox="0 0 32 32" id="buy-home"><g><rect width="7" height="14" x="2" y="16" fill="#13104c" rx="2"></rect><path fill="#4c46c8" d="M17,15a1,1,0,0,0-1,1v.34l2.26.45A4.671,4.671,0,0,1,21.8,20H22V16a1,1,0,0,0-1-1Z"></path><path fill="#4c46c8" d="M14 16a3.009 3.009 0 013-3h4a3.009 3.009 0 013 3v3.79l2.16-.36a5.672 5.672 0 01.82-.07 4.9 4.9 0 011.02.11V10.52l.43.3A.988.988 0 0029 11a1.011 1.011 0 00.82-.43.989.989 0 00-.25-1.39l-10-7a.992.992 0 00-1.14 0l-10 7a1 1 0 001.14 1.64l.43-.3V16zm4-7h2a1 1 0 010 2H18a1 1 0 010-2zM28.93 22.08a2.971 2.971 0 00-2.44-.67L22.92 22H17a1 1 0 010-2h2.62a2.636 2.636 0 00-1.75-1.25l-3.67-.73A1.355 1.355 0 0014 18H11V28a3.657 3.657 0 01-.13 1H20a1.635 1.635 0 00.22-.02l7.42-1.65a3.018 3.018 0 001.29-5.25z"></path></g></svg>