<svg xmlns="http://www.w3.org/2000/svg" viewBox="0 0 64 64" id="geothermal-energy"><defs><linearGradient id="a" x1="10.069" x2="67.484" y1="68.069" y2="10.655" gradientUnits="userSpaceOnUse"><stop offset="0" stop-color="#ed1c24"></stop><stop offset="1" stop-color="#00f"></stop></linearGradient></defs><path fill="url(#a)" d="M4.419,52H3V41H7v1a7.009,7.009,0,0,0,7,7H26v2.477c-.081.019-.162.032-.242.052A15.753,15.753,0,0,1,21.94,52H19.581a8.749,8.749,0,0,1-2.765-.448,10.715,10.715,0,0,0-3.4-.552H10.581a10.715,10.715,0,0,0-3.4.552A8.749,8.749,0,0,1,4.419,52ZM22,39H18V24a7.13,7.13,0,0,1,1.4-4.1,10.984,10.984,0,0,0,21.2,0A7.13,7.13,0,0,1,42,24V39H36V35a1,1,0,0,0-1-1H23a1,1,0,0,0-1,1Zm15-7h2V30H37Zm-4,0h2V30H33Zm-4,0h2V30H29Zm-4,0h2V30H25Zm-4,0h2V30H21Zm8-14v2.3L31.826,17H31a1,1,0,0,1-1-1V13.7L27.174,17H28A1,1,0,0,1,29,18Zm-8-1a9,9,0,1,1,9,9A9.01,9.01,0,0,1,21,17Zm3.092,1.418A1,1,0,0,0,25,19h2v4a1,1,0,0,0,.653.938A1.025,1.025,0,0,0,28,24a1,1,0,0,0,.759-.35l6-7A1,1,0,0,0,34,15H32V11a1,1,0,0,0-1.759-.65l-6,7A1,1,0,0,0,24.092,18.418ZM25,43a1,1,0,0,0,1-1V41H13v1a1,1,0,0,0,1,1ZM16,30H8a1,1,0,0,0-1,1v8h9Zm18,6H24v3H34ZM59.581,54H61v7H3V54H4.419a10.715,10.715,0,0,0,3.4-.552A8.749,8.749,0,0,1,10.581,53h2.838a8.749,8.749,0,0,1,2.765.448,10.715,10.715,0,0,0,3.4.552H21.94a17.776,17.776,0,0,0,4.3-.53A15.229,15.229,0,0,1,30.353,53q1.178.026,2.354,0a14.7,14.7,0,0,1,4.041.469A17.862,17.862,0,0,0,41.062,54h3.743a10.707,10.707,0,0,0,2.6-.321l1.673-.418A8.768,8.768,0,0,1,51.2,53h2.22a8.749,8.749,0,0,1,2.765.448A10.715,10.715,0,0,0,59.581,54ZM7,57H5v2H7Zm4-2H9v2h2Zm4,2H13v2h2Zm5-1H18v2h2Zm5,0H23v2h2Zm5,1H28v2h2Zm4-2H32v2h2Zm4,2H36v2h2Zm5-1H41v2h2Zm6,1H47v2h2Zm5-2H52v2h2Zm5,2H57v2h2ZM36,41v1a5.006,5.006,0,0,0,5,5h4a5.006,5.006,0,0,0,5-5V41H48v1a3,3,0,0,1-3,3H41a3,3,0,0,1-3-3V41Zm9,2a1,1,0,0,0,1-1V41H40v1a1,1,0,0,0,1,1ZM30,51.006V41H28v1a3,3,0,0,1-3,3H14a3,3,0,0,1-3-3V41H9v1a5.006,5.006,0,0,0,5,5H27a1,1,0,0,1,1,1v3.12A17.23,17.23,0,0,1,30,51.006ZM52,42a7.009,7.009,0,0,1-7,7H41a7.009,7.009,0,0,1-7-7V41H32V51c.221,0,.441,0,.661,0a16.981,16.981,0,0,1,4.522.516A15.957,15.957,0,0,0,41.062,52h3.743a8.719,8.719,0,0,0,2.115-.261l1.674-.418A10.742,10.742,0,0,1,51.2,51h2.22a10.715,10.715,0,0,1,3.4.552A8.749,8.749,0,0,0,59.581,52H61V41H52Zm.8-17H44V39h9.917Zm-8.679-2h8.519l-.56-7H44.9ZM45,12v2h7V12Zm7-4h0a2,2,0,0,1,2-2h4a2,2,0,0,0,2-2h0a2,2,0,0,0-2-2H50a1,1,0,0,0-1,1h0c0,.552-1.448,1-2,1h0a3,3,0,0,0-3,3V8"></path></svg>