<svg xmlns="http://www.w3.org/2000/svg" xmlns:xlink="http://www.w3.org/1999/xlink" xmlns:svgjs="http://svgjs.com/svgjs" id="SvgjsSvg1390" width="288" height="288"><defs id="SvgjsDefs1391"></defs><g id="SvgjsG1392"><svg xmlns="http://www.w3.org/2000/svg" viewBox="0 0 32 32" width="288" height="288"><path d="M17 16.67v-7h2.33A7.68 7.68 0 0 0 27 2a1 1 0 0 0-1-1H22.67A7.66 7.66 0 0 0 16 4.9 7.66 7.66 0 0 0 9.33 1H6A1 1 0 0 0 5 2a7.68 7.68 0 0 0 7.67 7.67H15v7a1 1 0 0 0 2 0zM22.67 3h2.24a5.67 5.67 0 0 1-5.58 4.67H17.09A5.67 5.67 0 0 1 22.67 3zm-10 4.67A5.67 5.67 0 0 1 7.09 3H9.33a5.67 5.67 0 0 1 5.58 4.67zM12 19a4.14 4.14 0 0 0-4.91-.64V14.09A5.1 5.1 0 0 0 2 9a1 1 0 0 0-1 1V21.75a3.06 3.06 0 0 0 1.18 2.41l1.71 1.32a3.06 3.06 0 0 1 1.19 2.44V30a1 1 0 0 0 1 1h8.3a1 1 0 0 0 1-1V23.63a3.05 3.05 0 0 0-.89-2.15zm1.38 10H7.08V27.92a5.09 5.09 0 0 0-2-4L3.4 22.58a1.07 1.07 0 0 1-.4-.83V11.17a3.08 3.08 0 0 1 2.09 2.92v6.49a.88.88 0 0 0 0 .17 1 1 0 0 0 .27.85l3.06 3.06a1 1 0 0 0 .71.29 1 1 0 0 0 .71-1.7L7.35 20.74l.32-.33a2.08 2.08 0 0 1 2.92 0l2.49 2.49a1 1 0 0 1 .3.73zM30 9a5.1 5.1 0 0 0-5.09 5.09v4.27A4.05 4.05 0 0 0 20 19l-2.49 2.48a3.05 3.05 0 0 0-.89 2.15V30a1 1 0 0 0 1 1h8.3a1 1 0 0 0 1-1V27.92a3.06 3.06 0 0 1 1.19-2.44l1.71-1.32A3.06 3.06 0 0 0 31 21.75V10A1 1 0 0 0 30 9zM29 21.75a1.05 1.05 0 0 1-.41.83l-1.7 1.32a5.09 5.09 0 0 0-2 4V29h-6.3V23.63a1 1 0 0 1 .3-.73l2.49-2.49a2.08 2.08 0 0 1 2.92 0l.32.33-2.51 2.51a1 1 0 0 0 .71 1.7 1 1 0 0 0 .71-.29l3.06-3.06a1 1 0 0 0 .27-.85.88.88 0 0 0 0-.17V14.09A3.08 3.08 0 0 1 29 11.17z" fill="#2d6cdf" class="color000 svgShape"></path></svg></g></svg>